<?xml version="1.0" encoding="UTF-8" standalone="no"?>
<!-- Created with Inkscape (http://www.inkscape.org/) -->

<svg
   width="50mm"
   height="50mm"
   viewBox="0 0 50 50"
   version="1.1"
   id="svg5"
   inkscape:version="1.1.2 (b8e25be833, 2022-02-05)"
   sodipodi:docname="bookmark_chevron.svg"
   xmlns:inkscape="http://www.inkscape.org/namespaces/inkscape"
   xmlns:sodipodi="http://sodipodi.sourceforge.net/DTD/sodipodi-0.dtd"
   xmlns="http://www.w3.org/2000/svg"
   xmlns:svg="http://www.w3.org/2000/svg">
  <sodipodi:namedview
     id="namedview7"
     pagecolor="#505050"
     bordercolor="#eeeeee"
     borderopacity="1"
     inkscape:pageshadow="0"
     inkscape:pageopacity="0"
     inkscape:pagecheckerboard="0"
     inkscape:document-units="mm"
     showgrid="false"
     inkscape:zoom="0.77771465"
     inkscape:cx="396.67505"
     inkscape:cy="560.61693"
     inkscape:window-width="3440"
     inkscape:window-height="1377"
     inkscape:window-x="-8"
     inkscape:window-y="-8"
     inkscape:window-maximized="1"
     inkscape:current-layer="layer1" />
  <defs
     id="defs2" />
  <g
     inkscape:label="Layer 1"
     inkscape:groupmode="layer"
     id="layer1">
    <path
       style="fill:#000000;stroke-width:0.999999"
       d="m 12.279725,43.918852 c -0.486899,-0.1778 -0.989954,-0.631685 -1.188814,-1.072614 -0.174125,-0.386085 -0.180701,-0.970552 -0.182744,-16.24066 -0.0023,-17.4808433 -0.04553,-16.227357 0.601526,-17.4579963 0.561537,-1.067994 1.875047,-2.027249 3.139457,-2.292741 0.355567,-0.07466 3.61626,-0.105641 10.708572,-0.101747 9.317557,0.0051 10.252113,0.02 10.832248,0.172482 1.582335,0.415904 2.835921,1.674684 3.312855,3.3265813 0.138804,0.480754 0.1516,2.114005 0.1291,16.476684 l -0.02498,15.943031 -0.293704,0.421193 c -0.577845,0.828671 -1.725866,1.152648 -2.552267,0.720264 -0.185712,-0.09717 -2.877326,-1.624064 -5.981365,-3.393105 -3.104039,-1.769041 -5.730533,-3.216357 -5.836654,-3.216258 -0.106121,9.7e-5 -2.645789,1.483489 -5.643707,3.296423 -2.997917,1.812934 -5.602705,3.351 -5.788417,3.417923 -0.41745,0.150433 -0.820151,0.150609 -1.231111,5.83e-4 z"
       id="path113" />
  </g>
</svg>
