<?xml version="1.0" encoding="UTF-8" standalone="no"?>
<!-- Created with Inkscape (http://www.inkscape.org/) -->

<svg
   width="210mm"
   height="297mm"
   viewBox="0 0 210 297"
   version="1.1"
   id="svg5"
   inkscape:version="1.1.2 (b8e25be833, 2022-02-05)"
   sodipodi:docname="fireball.svg"
   xmlns:inkscape="http://www.inkscape.org/namespaces/inkscape"
   xmlns:sodipodi="http://sodipodi.sourceforge.net/DTD/sodipodi-0.dtd"
   xmlns="http://www.w3.org/2000/svg"
   xmlns:svg="http://www.w3.org/2000/svg">
  <sodipodi:namedview
     id="namedview7"
     pagecolor="#505050"
     bordercolor="#eeeeee"
     borderopacity="1"
     inkscape:pageshadow="0"
     inkscape:pageopacity="0"
     inkscape:pagecheckerboard="0"
     inkscape:document-units="mm"
     showgrid="false"
     inkscape:zoom="0.77771465"
     inkscape:cx="396.67505"
     inkscape:cy="560.61693"
     inkscape:window-width="3440"
     inkscape:window-height="1377"
     inkscape:window-x="-8"
     inkscape:window-y="-8"
     inkscape:window-maximized="1"
     inkscape:current-layer="layer1" />
  <defs
     id="defs2" />
  <g
     inkscape:label="Layer 1"
     inkscape:groupmode="layer"
     id="layer1">
    <path
       style="fill:#000000;stroke-width:1"
       d="m 100.70161,278.19411 c -9.704153,-0.68599 -16.029943,-2.22304 -23.018753,-5.59312 -9.02022,-4.34965 -14.4965,-9.82433 -20.46746,-20.46151 -2.88412,-5.13802 -5.05326,-11.23835 -6.4868,-18.24295 -0.4135,-2.02046 -0.82043,-3.56255 -0.90428,-3.42687 -0.32563,0.52687 -0.98088,5.12936 -1.14272,8.02649 -0.3964,7.09603 1.45819,16.0601 4.80402,23.21998 0.65008,1.39113 1.14161,2.56967 1.0923,2.61898 -0.15294,0.15294 -6.24503,-4.09871 -8.90046,-6.2116 -3.26086,-2.59463 -9.6536,-8.99265 -12.26997,-12.28013 -9.63607,-12.10775 -15.46325,-26.19276 -17.51112,-42.32658 -0.67634,-5.32839 -0.79793,-13.17285 -0.27394,-17.67274 1.93461,-16.61382 8.12981,-30.7037 20.0678,-45.64062 3.49758,-4.3762 5.80551,-6.99462 14.22572,-16.13958 7.98485,-8.67211 10.12509,-11.13656 13.0973,-15.08125 5.62722,-7.46842 8.96209,-14.464352 10.02681,-21.034382 0.45334,-2.79742 0.53097,-8.478373 0.15171,-11.102593 -0.13592,-0.94044 -0.19056,-1.76645 -0.12143,-1.83558 0.22207,-0.22208 2.51211,2.17296 3.61219,3.7778 2.17807,3.177463 3.56057,7.015363 4.30407,11.948273 0.7673,5.0909 0.42381,14.828902 -0.73889,20.947582 -0.19934,1.04904 -0.2754,1.85355 -0.169,1.78779 0.10639,-0.0658 0.73658,-1.47681 1.40042,-3.13569 2.24459,-5.60901 3.8936,-12.191732 4.84601,-19.344872 0.63377,-4.75999 0.63243,-16.082893 -0.002,-20.870723 -2.34657,-17.694975 -8.99238,-33.227056 -20.47507,-47.852644 -1.34337,-1.711054 -2.33425,-3.111007 -2.20196,-3.111007 1.7191,0 14.53102,2.452026 20.21258,3.868409 39.407273,9.824037 72.328483,38.156922 87.998033,75.733495 9.64644,23.132762 12.40231,48.912862 7.86016,73.528832 -0.32925,1.78436 -0.51749,3.15358 -0.4183,3.04271 0.0992,-0.11086 0.65971,-1.39219 1.24562,-2.8474 4.05418,-10.06929 6.67656,-22.31188 6.67656,-31.16949 0,-1.60629 0.0956,-2.57054 0.23998,-2.41937 0.55771,0.58416 3.54287,6.33987 5.00182,9.64407 7.62312,17.26464 9.84304,36.2046 6.38198,54.44982 -2.49473,13.15116 -8.07867,26.27103 -15.58547,36.61922 -14.10982,19.45052 -35.10509,32.86564 -58.0831,37.11274 -7.43706,1.37461 -17.3978,1.97473 -24.47396,1.47451 z"
       id="path21" />
  </g>
</svg>
